<?xml version="1.0" standalone="yes"?>
<!DOCTYPE svg PUBLIC "-//W3C//DTD SVG 1.0//EN" 
  "http://www.w3.org/TR/2001/REC-SVG-20010904/DTD/svg10.dtd">
<svg width="100%" height="100%" viewBox="0 -7 350 370">
<defs>
<filter id="FilterValues" filterUnits="userSpaceOnUse" x="0" y="0" width="100%" height="100%">
  <feGaussianBlur in="SourceAlpha" stdDeviation="2" result="blur"/>
</filter>
</defs>
<g style="fill:none;stroke:grey;stroke-width:1"><path d="M 64.00 3.00 L 336.00 3.00"/><path d="M 64.00 32.40 L 336.00 32.40"/><path d="M 64.00 61.80 L 336.00 61.80"/><path d="M 64.00 91.20 L 336.00 91.20"/><path d="M 64.00 120.60 L 336.00 120.60"/><path d="M 64.00 150.00 L 336.00 150.00"/><path d="M 64.00 179.40 L 336.00 179.40"/><path d="M 64.00 208.80 L 336.00 208.80"/><path d="M 64.00 238.20 L 336.00 238.20"/><path d="M 64.00 267.60 L 336.00 267.60"/><path d="M 64.00 297.00 L 336.00 297.00"/><path d="M 64.00 3.00 L 64.00 297.00"/><path d="M 154.67 3.00 L 154.67 297.00"/><path d="M 245.33 3.00 L 245.33 297.00"/><path d="M 336.00 3.00 L 336.00 297.00"/></g><g filter="url(#FilterValues)"><path style="fill:none;stroke:#eaa;stroke-width:2" d="M 64.00 288.31 L 154.67 284.47 L 245.33 216.23 L 336.00 1.54"/><path style="fill:none;stroke:#b0b0ff;stroke-width:2" d="M 64.00 282.22 L 154.67 279.46 L 245.33 210.28 L 336.00 11.15"/></g><path style="fill:none;stroke:#eaa;stroke-width:2" d="M 64.00 288.31 L 154.67 284.47 L 245.33 216.23 L 336.00 1.54"/><path style="fill:none;stroke:#b0b0ff;stroke-width:2" d="M 64.00 282.22 L 154.67 279.46 L 245.33 210.28 L 336.00 11.15"/><g style="font-family:Verdana;font-size:10;fill:black;writing-mode:tb;text-anchor:end"><g transform="translate(64.00,300.00) rotate(180)"><text>4000x256</text></g><g transform="translate(154.67,300.00) rotate(180)"><text>400x2048</text></g><g transform="translate(245.33,300.00) rotate(180)"><text>4x32768</text></g><g transform="translate(336.00,300.00) rotate(180)"><text>1x65536</text></g></g><g style="font-family:Verdana;font-size:10;fill:black;text-anchor:end"><text x="61.00" y="6.00">1000000</text><text x="61.00" y="35.40">900000</text><text x="61.00" y="64.80">800000</text><text x="61.00" y="94.20">700000</text><text x="61.00" y="123.60">600000</text><text x="61.00" y="153.00">500000</text><text x="61.00" y="182.40">400000</text><text x="61.00" y="211.80">300000</text><text x="61.00" y="241.20">200000</text><text x="61.00" y="270.60">100000</text><text x="61.00" y="300.00"></text></g>
</svg>
